<?xml version="1.0" standalone="no"?>
<!DOCTYPE svg PUBLIC "-//W3C//DTD SVG 20010904//EN"
 "http://www.w3.org/TR/2001/REC-SVG-20010904/DTD/svg10.dtd">
<svg version="1.0" xmlns="http://www.w3.org/2000/svg"
 width="627.000000pt" height="627.000000pt" viewBox="0 0 627.000000 627.000000"
 preserveAspectRatio="xMidYMid meet">
<metadata>
Created by potrace 1.11, written by Peter Selinger 2001-2013
</metadata>
<g transform="translate(0.000000,627.000000) scale(0.100000,-0.100000)"
fill="#000000" stroke="none">
<path d="M3084 6246 c-33 -19 -524 -302 -619 -356 -247 -143 -813 -469 -1075
-619 -184 -106 -357 -206 -385 -222 -27 -17 -169 -98 -315 -182 l-265 -152 0
-1579 0 -1580 110 -64 c61 -35 139 -80 175 -99 36 -20 77 -44 92 -55 14 -10
28 -18 31 -18 3 0 61 -32 129 -71 67 -39 143 -83 168 -97 25 -13 50 -28 55
-32 6 -4 35 -21 65 -37 30 -16 147 -83 260 -148 113 -65 225 -129 250 -143 25
-13 50 -28 55 -32 6 -4 31 -19 57 -33 26 -14 125 -71 221 -126 96 -55 191
-109 212 -121 21 -12 115 -66 210 -120 95 -54 190 -109 211 -120 21 -12 68
-39 104 -60 36 -21 81 -47 100 -57 19 -11 75 -43 124 -72 l89 -51 56 32 c31
17 171 98 311 179 140 81 271 156 290 166 50 29 363 209 402 232 18 11 44 26
58 34 14 7 189 108 390 224 201 116 381 220 400 231 116 66 691 397 745 429
l50 29 0 1580 0 1579 -170 98 c-93 54 -179 102 -190 107 -11 6 -36 20 -55 31
-33 20 -350 202 -432 248 -51 28 -80 45 -233 133 -71 41 -150 86 -175 100 -25
14 -119 68 -210 120 -91 52 -340 195 -554 317 -214 123 -403 232 -420 242 -17
10 -38 22 -46 26 -8 4 -53 29 -100 56 -143 82 -131 79 -176 53z"/>
</g>
</svg>
